<?xml version="1.0" standalone="no"?>
<!DOCTYPE svg PUBLIC "-//W3C//DTD SVG 20010904//EN"
 "http://www.w3.org/TR/2001/REC-SVG-20010904/DTD/svg10.dtd">
<svg version="1.0" xmlns="http://www.w3.org/2000/svg"
 width="97.000000pt" height="97.000000pt" viewBox="0 0 97.000000 97.000000"
 preserveAspectRatio="xMidYMid meet">
<metadata>
Created by potrace 1.11, written by Peter Selinger 2001-2013
</metadata>
<g transform="translate(0.000000,97.000000) scale(0.100000,-0.100000)"
fill="#000000" stroke="none">
<path d="M378 955 c-147 -37 -263 -130 -324 -259 -69 -144 -68 -278 0 -423
103 -217 360 -323 591 -243 328 113 431 521 198 781 -112 124 -307 184 -465
144z m241 -44 c307 -96 416 -478 205 -720 -129 -148 -353 -194 -528 -107 -236
116 -324 388 -200 617 54 98 176 193 280 218 68 16 178 12 243 -8z"/>
<path d="M390 866 c-142 -39 -249 -145 -285 -281 -20 -80 -20 -105 4 -105 15
0 20 10 26 48 10 68 50 150 98 201 49 51 142 98 210 107 37 5 47 11 47 25 0
23 -31 24 -100 5z"/>
<path d="M410 777 c-136 -38 -224 -153 -224 -292 0 -120 63 -218 172 -272 147
-72 336 -1 403 150 51 113 22 255 -68 338 -80 73 -189 103 -283 76z m171 -127
c92 -48 125 -179 66 -268 -64 -97 -196 -116 -283 -40 -48 42 -67 83 -67 143 0
57 18 97 61 138 61 58 142 68 223 27z m98 -324 c8 -10 8 -16 -3 -25 -10 -9
-16 -8 -26 3 -12 15 -6 36 9 36 5 0 14 -6 20 -14z"/>
<path d="M837 430 c-8 -70 -38 -131 -91 -188 -53 -57 -115 -90 -197 -105 -47
-9 -59 -15 -59 -31 0 -16 5 -18 44 -13 171 24 321 170 342 335 6 47 5 52 -13
52 -17 0 -21 -9 -26 -50z"/>
</g>
</svg>
